<svg xmlns="http://www.w3.org/2000/svg" viewBox="0 0 386.72 61.5"><defs><style>.cls-1{fill:#4d6a6d;}</style></defs><title>cr_logo</title><g id="Layer_2" data-name="Layer 2"><g id="Layer_1-2" data-name="Layer 1"><path class="cls-1" d="M80.86,15.1c0-2.84,2.91-3.79,5.18-3.79a9.06,9.06,0,0,1,6.32,2.59V9.23a19.23,19.23,0,0,0-6-.89c-4.93,0-10.11,2-10.11,7.21,0,8.78,13.84,7.64,13.84,14.09,0,2.9-3.48,4.29-5.75,4.29a13.62,13.62,0,0,1-8.79-3.41l1.14,5.18A19.81,19.81,0,0,0,83.9,37c6.25,0,10.8-4.17,10.8-8.6C94.7,20.73,80.86,20.79,80.86,15.1Z"/><path class="cls-1" d="M128.63,9.1c3.16,1.14,1.83,4.49,1.08,6.82l-4.55,15.17L119.6,13.14A9.48,9.48,0,0,1,119,9h-5.68V9.1c2.21,1.14,1.39,3.85.63,6.38l-4.68,15.74-6-19.21a7.73,7.73,0,0,1-.5-3H96.85v.12c2,1.39,2.59,4.11,3.35,6.39l4.74,15.29c1.32,4.29,1.7,4,5.37,6.7l6.25-21L121,30.84c1.32,4.29,1.58,4,5.3,6.7L134.76,9h-6.19V9.1Z"/><path class="cls-1" d="M159.53,30.27,151.19,9h-6.38V9.1c2,.63,1.14,2.34.63,3.85l-6.7,17.32c-.88,2.34-1.58,4.67-3.92,5.87v.13h7.4v-.13c-2-.75-1.64-2-.82-4.29L143.48,26h10.11l2.15,5.88c1.07,2.9,1.39,3.35-.57,4.29v.13h8.28v-.13C161.17,34.94,160.48,32.67,159.53,30.27Zm-15-7.27,4-10.42L152.45,23Z"/><path class="cls-1" d="M183.23,30.46l-5.82-7.52c3.29-.82,6.39-3.67,6.39-7.27,0-3.79-2.91-6.7-8.34-6.7h-9.61V9.1c2,.76,1.77,3.79,1.77,5.75V30.46c0,1.89.25,4.93-1.77,5.68v.13h7.71v-.13c-2-.75-1.83-3.79-1.83-5.68V11.88a13.69,13.69,0,0,1,2.71-.32c2.72-.12,5.19,1.65,5.19,4.62,0,3.92-3.73,5.43-7,5.94L176.4,28l4.93,6.26A5.25,5.25,0,0,0,186,36.33h3.73A28.37,28.37,0,0,1,183.23,30.46Z"/><path class="cls-1" d="M208.19,9h-16a4.08,4.08,0,0,1-1.52-.31h-.12l-1.39,4.93h.12a6.89,6.89,0,0,1,4.81-1.65h3.53V30.46c0,1.89.26,4.86-1.77,5.68v.13h8v-.13c-2.15-1.26-2.09-2.9-2.09-5.24V12h3.6c1.33,0,2.91.19,3.48,1.64h.12l1.27-4.93h-.13A4.64,4.64,0,0,1,208.19,9Z"/><path class="cls-1" d="M234.66,9.1c2,.76,1.77,3.79,1.77,5.75V20H221.9V14.85c0-1.9-.25-4.93,1.77-5.75V9H216V9.1c2,.76,1.77,3.79,1.77,5.69V30.46c0,1.89.25,4.86-1.77,5.68v.13h7.71v-.13c-2-.75-1.77-3.79-1.77-5.68V23h14.53v7.52c0,1.9.26,4.87-1.76,5.69v.12h7.7v-.12c-2-.76-1.83-3.79-1.83-5.69V14.79c0-1.9-.25-4.87,1.83-5.69V9h-7.7V9.1Z"/><path class="cls-1" d="M284.33,32l-2.66-20.34c0-1,.26-2.15,1.27-2.47V9H276V9.1a6.65,6.65,0,0,1-.63,2.59l-6.7,17.57L261.08,11a4.63,4.63,0,0,1-.57-1.9V9h-7v.12c1.84,1,1.39,2.72,1.27,3.86l-2.28,17.31c-.31,2.28-.57,4.3-2.27,5.81v.13h6.57v-.13c-1.9-.88-1.64-2.71-1.27-5.24l2.28-17.82,7.65,18.7a9.7,9.7,0,0,0,3.53,5L278,13l2.27,20c0,1.39-.25,2.65-1.64,3.09v.13h7.77v-.13C284.77,35,284.58,33.87,284.33,32Z"/><path class="cls-1" d="M306.38,8.28a14.5,14.5,0,0,0-15.1,14.28c0,8.53,6.7,14.41,14.66,14.41a14.53,14.53,0,0,0,14.79-14.6A14,14,0,0,0,306.38,8.28ZM306.19,34c-6.32,0-10.3-5.94-10.3-11.76,0-6.25,4-10.93,10.24-10.93s10.11,5.88,10.11,11.88C316.18,29.38,312.26,34,306.19,34Z"/><path class="cls-1" d="M343.79,30.46,338,22.94c3.28-.82,6.38-3.67,6.38-7.27,0-3.79-2.91-6.7-8.34-6.7h-9.61V9.1c2,.76,1.77,3.79,1.77,5.75V30.46c0,1.89.25,4.93-1.77,5.68v.13h7.71v-.13c-2-.75-1.83-3.79-1.83-5.68V11.88a13.79,13.79,0,0,1,2.72-.32,4.68,4.68,0,0,1,5.18,4.62c0,3.92-3.73,5.43-6.95,5.94L337,28l4.93,6.26a5.25,5.25,0,0,0,4.68,2.08h3.73A28.37,28.37,0,0,1,343.79,30.46Z"/><path class="cls-1" d="M364.2,33.3l-5.12-.5V23h3c1.26,0,2.91-.06,3.6,1.14h.13V19.72h-.13a4.05,4.05,0,0,1-1.77.25h-4.8V12.26a21.88,21.88,0,0,1,4.11-.32c1.83,0,3.47.19,4.74,1.65h.12V8.72h-.12a3.65,3.65,0,0,1-1.9.19H353.14V9c2,.76,1.83,3.79,1.83,5.75v15.6c0,1.9.26,4.93-1.83,5.69v.13h16.75l1.83-5.44h-.13A9.43,9.43,0,0,1,364.2,33.3Z"/><path class="cls-1" d="M80.67,51a2.37,2.37,0,0,0-.63-.54,1.87,1.87,0,0,0-.92-.21,1.8,1.8,0,0,0-.89.21.7.7,0,0,0-.37.64.73.73,0,0,0,.21.54,1.87,1.87,0,0,0,.52.34,2.9,2.9,0,0,0,.63.19l.57.11a7.54,7.54,0,0,1,.88.27,2.55,2.55,0,0,1,.7.42,1.76,1.76,0,0,1,.46.62,2.07,2.07,0,0,1,.17.9,2.1,2.1,0,0,1-.27,1.09,2.29,2.29,0,0,1-.7.75,2.92,2.92,0,0,1-1,.41,4.67,4.67,0,0,1-1.11.13,4.28,4.28,0,0,1-1.66-.29A3,3,0,0,1,76,55.51l1.09-.9a4.78,4.78,0,0,0,.78.63,2,2,0,0,0,1.06.27,2.57,2.57,0,0,0,.55-.06,1.84,1.84,0,0,0,.5-.17,1.17,1.17,0,0,0,.35-.31.68.68,0,0,0,.14-.42.74.74,0,0,0-.2-.53,1.58,1.58,0,0,0-.48-.33,3.82,3.82,0,0,0-.6-.19l-.55-.12a7.54,7.54,0,0,1-.88-.26,2.41,2.41,0,0,1-.73-.38,1.71,1.71,0,0,1-.52-.61,2,2,0,0,1-.19-.91,2,2,0,0,1,.25-1,2,2,0,0,1,.66-.73,2.88,2.88,0,0,1,.92-.43,3.81,3.81,0,0,1,1-.15,3.89,3.89,0,0,1,1.47.29,2.28,2.28,0,0,1,1.12,1Z"/><path class="cls-1" d="M88.26,50.32H86.19v3.44c0,.22,0,.43,0,.64a1.69,1.69,0,0,0,.12.56,1,1,0,0,0,.32.4,1.08,1.08,0,0,0,.63.15,3.27,3.27,0,0,0,.53,0,1.43,1.43,0,0,0,.5-.18V56.6a2.21,2.21,0,0,1-.67.2c-.27,0-.48.05-.63.05a3,3,0,0,1-1.29-.23,1.52,1.52,0,0,1-.67-.6,2,2,0,0,1-.26-.82c0-.31,0-.61,0-.92v-4H83.09V49.08h1.66V47h1.44v2.13h2.07Z"/><path class="cls-1" d="M97.28,56.66H95.84V55.49h0a2.13,2.13,0,0,1-.94,1,3.16,3.16,0,0,1-1.56.37,3,3,0,0,1-1-.17,2.27,2.27,0,0,1-.87-.52,2.23,2.23,0,0,1-.6-.9,3.43,3.43,0,0,1-.23-1.3V49.08H92v4.48a2.42,2.42,0,0,0,.15.9,1.63,1.63,0,0,0,.38.61,1.47,1.47,0,0,0,.55.33,2.06,2.06,0,0,0,.65.11,2.23,2.23,0,0,0,.83-.15,1.59,1.59,0,0,0,.67-.45,2.1,2.1,0,0,0,.45-.79A3.52,3.52,0,0,0,95.84,53v-3.9h1.44Z"/><path class="cls-1" d="M107.51,56.66h-1.44V55.57h0a2.74,2.74,0,0,1-1.14,1,3.59,3.59,0,0,1-1.5.33,4.09,4.09,0,0,1-1.59-.3,3.49,3.49,0,0,1-1.21-.85,3.71,3.71,0,0,1-.78-1.26,4.46,4.46,0,0,1-.27-1.57,4.52,4.52,0,0,1,.27-1.58,3.71,3.71,0,0,1,.78-1.26,3.46,3.46,0,0,1,1.21-.84,4.1,4.1,0,0,1,1.59-.31,3.51,3.51,0,0,1,1.54.35,2.6,2.6,0,0,1,1.1.93h0v-5.6h1.44Zm-3.94-1.15a2.68,2.68,0,0,0,1-.2,2.34,2.34,0,0,0,.78-.55,2.3,2.3,0,0,0,.5-.83,3,3,0,0,0,.18-1.06,3.08,3.08,0,0,0-.18-1.07,2.39,2.39,0,0,0-.5-.83,2.18,2.18,0,0,0-.78-.54,2.8,2.8,0,0,0-2.08,0,2.18,2.18,0,0,0-.78.54,2.39,2.39,0,0,0-.5.83,3.08,3.08,0,0,0-.18,1.07,3,3,0,0,0,.18,1.06,2.3,2.3,0,0,0,.5.83,2.34,2.34,0,0,0,.78.55A2.68,2.68,0,0,0,103.57,55.51Z"/><path class="cls-1" d="M111.22,53.4a1.93,1.93,0,0,0,.21.9,2.34,2.34,0,0,0,1.39,1.14,2.85,2.85,0,0,0,1,.16,2.15,2.15,0,0,0,1.17-.31,3.87,3.87,0,0,0,.91-.82l1.09.83a4,4,0,0,1-3.36,1.55,4.26,4.26,0,0,1-1.63-.3,3.54,3.54,0,0,1-1.23-.84,3.66,3.66,0,0,1-.78-1.27,4.46,4.46,0,0,1-.27-1.57,4.12,4.12,0,0,1,.3-1.58,4,4,0,0,1,.81-1.26,3.68,3.68,0,0,1,1.24-.84,4.07,4.07,0,0,1,1.57-.31,3.72,3.72,0,0,1,1.71.36,3.33,3.33,0,0,1,1.14.92,3.6,3.6,0,0,1,.65,1.28,5.38,5.38,0,0,1,.2,1.44v.52Zm4.54-1.16a3.06,3.06,0,0,0-.15-.88,2,2,0,0,0-.41-.69,2,2,0,0,0-.68-.47,2.52,2.52,0,0,0-1-.16,2.35,2.35,0,0,0-2.18,1.43,1.82,1.82,0,0,0-.17.77Z"/><path class="cls-1" d="M119.47,49.08h1.44v1.16h0a2.11,2.11,0,0,1,.94-1,3.12,3.12,0,0,1,1.55-.38,3.39,3.39,0,0,1,1,.17,2.36,2.36,0,0,1,.88.52,2.58,2.58,0,0,1,.6.91,3.4,3.4,0,0,1,.22,1.3v4.88h-1.44V52.18a2.43,2.43,0,0,0-.14-.9,1.69,1.69,0,0,0-.39-.61,1.31,1.31,0,0,0-.55-.34,2,2,0,0,0-.64-.1,2.55,2.55,0,0,0-.84.14,1.79,1.79,0,0,0-.67.46,2.24,2.24,0,0,0-.45.79,3.82,3.82,0,0,0-.16,1.14v3.9h-1.44Z"/><path class="cls-1" d="M132.88,50.32h-2.06v3.44c0,.22,0,.43,0,.64A1.69,1.69,0,0,0,131,55a1,1,0,0,0,.32.4,1.14,1.14,0,0,0,.64.15,3.15,3.15,0,0,0,.52,0,1.43,1.43,0,0,0,.5-.18V56.6a2.06,2.06,0,0,1-.66.2c-.28,0-.49.05-.64.05a2.93,2.93,0,0,1-1.28-.23,1.55,1.55,0,0,1-.68-.6,1.88,1.88,0,0,1-.25-.82c0-.31,0-.61,0-.92v-4h-1.67V49.08h1.67V47h1.44v2.13h2.06Z"/><path class="cls-1" d="M140.11,50a4.2,4.2,0,0,1,1.41-.84,5,5,0,0,1,1.6-.28,4.31,4.31,0,0,1,1.43.21,3,3,0,0,1,1,.56,2.32,2.32,0,0,1,.56.81,2.37,2.37,0,0,1,.19.95v3.87c0,.27,0,.52,0,.74s0,.44,0,.64h-1.28c0-.38,0-.77,0-1.15h0a2.78,2.78,0,0,1-1.13,1,3.65,3.65,0,0,1-1.52.3,3.73,3.73,0,0,1-1-.14,2.57,2.57,0,0,1-.84-.43,2.12,2.12,0,0,1-.57-.72,2.43,2.43,0,0,1,.12-2.21,2.53,2.53,0,0,1,.9-.81,4.28,4.28,0,0,1,1.32-.45,9.36,9.36,0,0,1,1.63-.13H145v-.32a1.47,1.47,0,0,0-.12-.58,1.53,1.53,0,0,0-.33-.52,1.71,1.71,0,0,0-.56-.37,2.17,2.17,0,0,0-.8-.13,2.67,2.67,0,0,0-.73.08,2.93,2.93,0,0,0-.57.2,2.35,2.35,0,0,0-.46.28l-.4.3Zm4.07,3a9.51,9.51,0,0,0-1.05.06,4.71,4.71,0,0,0-1,.21,2,2,0,0,0-.72.45,1.18,1.18,0,0,0,.16,1.68,2.2,2.2,0,0,0,1.2.29,2.31,2.31,0,0,0,1-.2,2,2,0,0,0,.68-.52,1.91,1.91,0,0,0,.36-.71,2.64,2.64,0,0,0,.12-.78V53Z"/><path class="cls-1" d="M154.26,51.09a3,3,0,0,0-.84-.63,2.46,2.46,0,0,0-1-.22,2.34,2.34,0,0,0-1,.22,2,2,0,0,0-.74.59,2.57,2.57,0,0,0-.45.87,3.38,3.38,0,0,0-.15,1,2.77,2.77,0,0,0,.18,1,2.47,2.47,0,0,0,.49.83,2.34,2.34,0,0,0,1.78.75,2.25,2.25,0,0,0,1-.22,2.59,2.59,0,0,0,.8-.63l1,1a3.12,3.12,0,0,1-1.3.9,4.6,4.6,0,0,1-1.58.27,4.14,4.14,0,0,1-1.6-.29,3.72,3.72,0,0,1-1.26-.8,3.82,3.82,0,0,1-.82-1.25,4.39,4.39,0,0,1-.28-1.61,4.48,4.48,0,0,1,.28-1.62,3.74,3.74,0,0,1,.81-1.26,3.58,3.58,0,0,1,1.25-.82,4.44,4.44,0,0,1,3.21,0,3.42,3.42,0,0,1,1.32.9Z"/><path class="cls-1" d="M161.06,50.32H159v3.44c0,.22,0,.43,0,.64a1.69,1.69,0,0,0,.12.56,1,1,0,0,0,.32.4,1.08,1.08,0,0,0,.63.15,3.27,3.27,0,0,0,.53,0,1.43,1.43,0,0,0,.5-.18V56.6a2.21,2.21,0,0,1-.67.2c-.27,0-.48.05-.63.05a3,3,0,0,1-1.29-.23,1.52,1.52,0,0,1-.67-.6,2,2,0,0,1-.26-.82c0-.31,0-.61,0-.92v-4h-1.66V49.08h1.66V47H159v2.13h2.07Z"/><path class="cls-1" d="M163.14,46.36a1,1,0,0,1,.31-.75,1,1,0,0,1,.74-.31,1,1,0,0,1,.75.31,1.05,1.05,0,0,1,0,1.49,1,1,0,0,1-.75.31,1,1,0,0,1-.74-.31A1,1,0,0,1,163.14,46.36Zm.33,2.72h1.44v7.58h-1.44Z"/><path class="cls-1" d="M166.74,49.08h1.66l2.27,5.8,2.18-5.8h1.53l-3,7.58h-1.58Z"/><path class="cls-1" d="M175.87,46.36a1.06,1.06,0,0,1,.31-.75,1,1,0,0,1,.75-.31,1,1,0,0,1,.74.31,1.05,1.05,0,0,1,0,1.49,1,1,0,0,1-.74.31,1,1,0,0,1-.75-.31A1.05,1.05,0,0,1,175.87,46.36Zm.34,2.72h1.44v7.58h-1.44Z"/><path class="cls-1" d="M184.42,51a2.27,2.27,0,0,0-.64-.54,1.84,1.84,0,0,0-.92-.21,1.76,1.76,0,0,0-.88.21.71.71,0,0,0-.38.64.7.7,0,0,0,.22.54,1.69,1.69,0,0,0,.51.34,3.28,3.28,0,0,0,.63.19l.58.11a6.83,6.83,0,0,1,.87.27,2.41,2.41,0,0,1,.7.42,1.79,1.79,0,0,1,.47.62,2.22,2.22,0,0,1,.17.9,2.1,2.1,0,0,1-.28,1.09,2.19,2.19,0,0,1-.7.75,2.92,2.92,0,0,1-1,.41,4.56,4.56,0,0,1-1.11.13,4.19,4.19,0,0,1-1.65-.29,2.91,2.91,0,0,1-1.27-1.05l1.08-.9a4.86,4.86,0,0,0,.79.63,1.93,1.93,0,0,0,1,.27,2.57,2.57,0,0,0,.55-.06,1.73,1.73,0,0,0,.5-.17,1.17,1.17,0,0,0,.35-.31.68.68,0,0,0,.14-.42A.74.74,0,0,0,184,54a1.37,1.37,0,0,0-.48-.33,4.06,4.06,0,0,0-.59-.19l-.56-.12a7.37,7.37,0,0,1-.87-.26,2.46,2.46,0,0,1-.74-.38,1.59,1.59,0,0,1-.51-.61,1.91,1.91,0,0,1-.2-.91,2.09,2.09,0,0,1,.25-1,2.21,2.21,0,0,1,.66-.73,2.84,2.84,0,0,1,.93-.43,3.68,3.68,0,0,1,1-.15,3.9,3.9,0,0,1,1.48.29,2.32,2.32,0,0,1,1.12,1Z"/><path class="cls-1" d="M187.94,49.08h1.34v1.18h0a1.25,1.25,0,0,1,.25-.4,2.58,2.58,0,0,1,.51-.46,3.4,3.4,0,0,1,.74-.36,2.52,2.52,0,0,1,.93-.16,2.66,2.66,0,0,1,1.43.36,2.55,2.55,0,0,1,.94,1,2.4,2.4,0,0,1,1-1,2.85,2.85,0,0,1,1.36-.36,3.15,3.15,0,0,1,1.44.29,2.27,2.27,0,0,1,.88.76,2.82,2.82,0,0,1,.44,1.07,6.36,6.36,0,0,1,.12,1.24v4.42H198V52.44a7.58,7.58,0,0,0,0-.84,1.93,1.93,0,0,0-.24-.7,1.28,1.28,0,0,0-.49-.49,1.73,1.73,0,0,0-.85-.18,1.69,1.69,0,0,0-1.49.64,2.78,2.78,0,0,0-.45,1.65v4.14h-1.44v-4a7.61,7.61,0,0,0-.05-1,2.23,2.23,0,0,0-.23-.78,1.24,1.24,0,0,0-.48-.51,1.64,1.64,0,0,0-.84-.18,1.92,1.92,0,0,0-.74.15,1.66,1.66,0,0,0-.63.46,2.12,2.12,0,0,0-.43.77,3.42,3.42,0,0,0-.16,1.11v3.94h-1.44Z"/><path class="cls-1" d="M207,51a2.72,2.72,0,0,1,.23-1.11,2.85,2.85,0,0,1,1.5-1.5,2.77,2.77,0,0,1,2.21,0,2.94,2.94,0,0,1,1.5,1.5,2.77,2.77,0,0,1,0,2.21,2.85,2.85,0,0,1-1.5,1.5,2.77,2.77,0,0,1-2.21,0,2.76,2.76,0,0,1-1.5-1.5A2.71,2.71,0,0,1,207,51Z"/><path class="cls-1" d="M225.68,51.09a3,3,0,0,0-.84-.63,2.39,2.39,0,0,0-1.05-.22,2.37,2.37,0,0,0-1,.22,2.13,2.13,0,0,0-.74.59,2.74,2.74,0,0,0-.44.87,3.1,3.1,0,0,0-.16,1,2.77,2.77,0,0,0,.18,1,2.39,2.39,0,0,0,1.26,1.38,2.53,2.53,0,0,0,1,.2,2.22,2.22,0,0,0,1-.22,2.48,2.48,0,0,0,.8-.63l1,1a3.22,3.22,0,0,1-1.31.9,4.54,4.54,0,0,1-1.57.27,4.16,4.16,0,0,1-1.61-.29,3.72,3.72,0,0,1-1.26-.8,3.65,3.65,0,0,1-.81-1.25,4.19,4.19,0,0,1-.29-1.61,4.28,4.28,0,0,1,.29-1.62A3.72,3.72,0,0,1,221,50a3.67,3.67,0,0,1,1.25-.82,4.26,4.26,0,0,1,1.63-.3,4.32,4.32,0,0,1,1.59.3,3.57,3.57,0,0,1,1.32.9Z"/><path class="cls-1" d="M228.19,46.36a1.06,1.06,0,0,1,.31-.75,1,1,0,0,1,.75-.31,1,1,0,0,1,.74.31,1.05,1.05,0,0,1,0,1.49,1,1,0,0,1-.74.31,1,1,0,0,1-.75-.31A1.05,1.05,0,0,1,228.19,46.36Zm.34,2.72H230v7.58h-1.44Z"/><path class="cls-1" d="M231.79,49.08h1.67l2.27,5.8,2.17-5.8h1.54l-3,7.58h-1.58Z"/><path class="cls-1" d="M240.93,46.36a1.06,1.06,0,1,1,.31.74A1,1,0,0,1,240.93,46.36Zm.33,2.72h1.44v7.58h-1.44Z"/><path class="cls-1" d="M245.55,44.56H247v12.1h-1.44Z"/><path class="cls-1" d="M254.62,49.08h1.44v1.16h0a2,2,0,0,1,.38-.55,2.79,2.79,0,0,1,.54-.42,2.64,2.64,0,0,1,.64-.28,2.5,2.5,0,0,1,.71-.11,2.15,2.15,0,0,1,.64.1l-.07,1.55-.35-.08a2.07,2.07,0,0,0-.35,0,2.16,2.16,0,0,0-1.62.59,2.63,2.63,0,0,0-.56,1.84v3.81h-1.44Z"/><path class="cls-1" d="M260.77,46.36a1.06,1.06,0,1,1,.31.74A1,1,0,0,1,260.77,46.36Zm.33,2.72h1.44v7.58H261.1Z"/><path class="cls-1" d="M272.88,56.6a4,4,0,0,1-.3,1.57,3.29,3.29,0,0,1-.84,1.23,3.72,3.72,0,0,1-1.31.81,4.83,4.83,0,0,1-1.69.29,6.36,6.36,0,0,1-2-.3A5,5,0,0,1,265,59.14l1-1.22a3.74,3.74,0,0,0,1.22.92,3.35,3.35,0,0,0,1.48.32,3.2,3.2,0,0,0,1.33-.24,2.21,2.21,0,0,0,.84-.6,2,2,0,0,0,.44-.84,3.4,3.4,0,0,0,.13-.95V55.41h-.05a2.53,2.53,0,0,1-1.13,1,3.48,3.48,0,0,1-1.49.33,4,4,0,0,1-1.55-.3,3.69,3.69,0,0,1-1.22-.82,3.59,3.59,0,0,1-.8-1.23,4.1,4.1,0,0,1-.29-1.54,4.41,4.41,0,0,1,.27-1.56A3.66,3.66,0,0,1,266,50a3.4,3.4,0,0,1,1.22-.85,4,4,0,0,1,1.59-.31,3.56,3.56,0,0,1,1.49.34,2.75,2.75,0,0,1,1.15.94h0V49.08h1.44Zm-3.94-6.37a2.51,2.51,0,0,0-1,.2,2.18,2.18,0,0,0-.78.54,2.56,2.56,0,0,0-.5.83,3.33,3.33,0,0,0-.17,1.07,2.55,2.55,0,0,0,.67,1.85,2.76,2.76,0,0,0,3.65,0,2.55,2.55,0,0,0,.67-1.85,3.08,3.08,0,0,0-.18-1.07,2.37,2.37,0,0,0-.49-.83,2.31,2.31,0,0,0-.79-.54A2.48,2.48,0,0,0,268.94,50.23Z"/><path class="cls-1" d="M275.5,44.56h1.44v5.68h0a2.18,2.18,0,0,1,.95-1,3.12,3.12,0,0,1,1.55-.38,3.39,3.39,0,0,1,1,.17,2.36,2.36,0,0,1,.88.52,2.58,2.58,0,0,1,.6.91,3.4,3.4,0,0,1,.22,1.3v4.88h-1.44V52.18a2.43,2.43,0,0,0-.14-.9,1.67,1.67,0,0,0-.38-.61,1.48,1.48,0,0,0-.56-.34,2,2,0,0,0-.65-.1,2.54,2.54,0,0,0-.83.14,1.79,1.79,0,0,0-.67.46,2.24,2.24,0,0,0-.45.79,3.82,3.82,0,0,0-.16,1.14v3.9H275.5Z"/><path class="cls-1" d="M288.91,50.32h-2.06v3.44c0,.22,0,.43,0,.64A1.69,1.69,0,0,0,287,55a1,1,0,0,0,.32.4,1.14,1.14,0,0,0,.64.15,3.15,3.15,0,0,0,.52,0,1.43,1.43,0,0,0,.5-.18V56.6a2.06,2.06,0,0,1-.66.2c-.28,0-.49.05-.64.05a2.93,2.93,0,0,1-1.28-.23,1.55,1.55,0,0,1-.68-.6,1.88,1.88,0,0,1-.25-.82c0-.31,0-.61,0-.92v-4h-1.67V49.08h1.67V47h1.44v2.13h2.06Z"/><path class="cls-1" d="M295.25,51a2.37,2.37,0,0,0-.63-.54,1.89,1.89,0,0,0-.92-.21,1.78,1.78,0,0,0-.89.21.71.71,0,0,0-.38.64.7.7,0,0,0,.22.54,1.69,1.69,0,0,0,.51.34,3.28,3.28,0,0,0,.63.19l.58.11a6.83,6.83,0,0,1,.87.27,2.41,2.41,0,0,1,.7.42,1.79,1.79,0,0,1,.47.62,2.22,2.22,0,0,1,.17.9,2.1,2.1,0,0,1-.28,1.09,2.19,2.19,0,0,1-.7.75,3,3,0,0,1-1,.41,4.7,4.7,0,0,1-1.12.13,4.19,4.19,0,0,1-1.65-.29,2.91,2.91,0,0,1-1.27-1.05l1.08-.9a4.86,4.86,0,0,0,.79.63,2,2,0,0,0,1.05.27,2.57,2.57,0,0,0,.55-.06,1.73,1.73,0,0,0,.5-.17,1.06,1.06,0,0,0,.35-.31.68.68,0,0,0,.14-.42.74.74,0,0,0-.2-.53,1.37,1.37,0,0,0-.48-.33,4.06,4.06,0,0,0-.59-.19l-.55-.12a7,7,0,0,1-.88-.26,2.46,2.46,0,0,1-.74-.38,1.79,1.79,0,0,1-.51-.61,1.91,1.91,0,0,1-.2-.91,2.09,2.09,0,0,1,.25-1,2.21,2.21,0,0,1,.66-.73,2.84,2.84,0,0,1,.93-.43,3.7,3.7,0,0,1,1-.15,3.89,3.89,0,0,1,1.47.29,2.32,2.32,0,0,1,1.12,1Z"/><path class="cls-1" d="M299.76,58.77h-1.31l1.1-3.93h1.54Z"/><path class="cls-1" d="M311.79,47.09,309.71,49l-.9-1.07L312,45.33h1.36V56.66h-1.54Z"/><path class="cls-1" d="M322.19,52.28h-.06a2.85,2.85,0,0,1-1.25.25,3.79,3.79,0,0,1-1.23-.21,3.18,3.18,0,0,1-1.13-.64,3.35,3.35,0,0,1-.82-1.12,3.67,3.67,0,0,1-.32-1.61,4,4,0,0,1,.31-1.64,3.46,3.46,0,0,1,2.07-1.92,4.57,4.57,0,0,1,3,0,3.62,3.62,0,0,1,1.23.73,3.71,3.71,0,0,1,.84,1.15,3.52,3.52,0,0,1,.31,1.51,4.78,4.78,0,0,1-.08,1,4.31,4.31,0,0,1-.23.82,6.78,6.78,0,0,1-.36.78c-.14.25-.29.52-.46.78l-2.87,4.53h-1.81Zm1.43-3.44a2.63,2.63,0,0,0-.17-1,2.06,2.06,0,0,0-.48-.74,2.27,2.27,0,0,0-.75-.49,2.42,2.42,0,0,0-1-.18,2.49,2.49,0,0,0-1,.18,2.33,2.33,0,0,0-.74.49,2.06,2.06,0,0,0-.48.74,2.71,2.71,0,0,0,0,1.89,2,2,0,0,0,.48.74,2.33,2.33,0,0,0,.74.49,2.49,2.49,0,0,0,1,.18,2.42,2.42,0,0,0,1-.18,2.27,2.27,0,0,0,.75-.49,2,2,0,0,0,.48-.74A2.62,2.62,0,0,0,323.62,48.84Z"/><path class="cls-1" d="M329.68,49.72h.06a2.84,2.84,0,0,1,1.25-.26,3.79,3.79,0,0,1,1.23.21,3.12,3.12,0,0,1,1.13.65,3.16,3.16,0,0,1,.82,1.12,3.63,3.63,0,0,1,.33,1.6,4.06,4.06,0,0,1-.32,1.66,3.3,3.3,0,0,1-.84,1.19,3.44,3.44,0,0,1-1.23.72,4.62,4.62,0,0,1-1.5.24,4.39,4.39,0,0,1-1.51-.25,3.64,3.64,0,0,1-1.23-.74,3.6,3.6,0,0,1-.84-1.15,3.52,3.52,0,0,1-.31-1.51,5.64,5.64,0,0,1,.08-1,4.53,4.53,0,0,1,.23-.82,6,6,0,0,1,.36-.77c.14-.25.29-.51.47-.79l2.86-4.53h1.81Zm-1.42,3.44a2.61,2.61,0,0,0,.16.94,2.15,2.15,0,0,0,1.23,1.23,2.65,2.65,0,0,0,1.92,0,2.22,2.22,0,0,0,.74-.49,2,2,0,0,0,.48-.74,2.71,2.71,0,0,0,0-1.89,2.06,2.06,0,0,0-.48-.74,2.22,2.22,0,0,0-.74-.49,2.65,2.65,0,0,0-1.92,0,2.27,2.27,0,0,0-.75.49,2.36,2.36,0,0,0-.48.74A2.63,2.63,0,0,0,328.26,53.16Z"/><path class="cls-1" d="M336.05,51c0-.42,0-.85.06-1.3a8.28,8.28,0,0,1,.23-1.32,7.32,7.32,0,0,1,.45-1.24,3.81,3.81,0,0,1,.72-1,3.31,3.31,0,0,1,1-.71,3.9,3.9,0,0,1,2.8,0,3.31,3.31,0,0,1,1,.71,3.81,3.81,0,0,1,.72,1,6.54,6.54,0,0,1,.45,1.24,8.28,8.28,0,0,1,.23,1.32c0,.45.06.88.06,1.3a13.45,13.45,0,0,1-.15,1.92,6.69,6.69,0,0,1-.6,1.9,4,4,0,0,1-1.19,1.46,3.65,3.65,0,0,1-3.92,0,4,4,0,0,1-1.19-1.46,6.38,6.38,0,0,1-.59-1.9A12.21,12.21,0,0,1,336.05,51Zm1.53,0c0,.37,0,.81.08,1.32A6,6,0,0,0,338,53.8a3.11,3.11,0,0,0,.71,1.21,1.86,1.86,0,0,0,2.54,0,3,3,0,0,0,.71-1.21,6.49,6.49,0,0,0,.32-1.48c.05-.51.07-1,.07-1.32s0-.55,0-.88a8.89,8.89,0,0,0-.12-1,6.27,6.27,0,0,0-.25-1,2.93,2.93,0,0,0-.42-.85,2,2,0,0,0-.65-.6,1.76,1.76,0,0,0-.91-.23,1.78,1.78,0,0,0-.91.23,2.07,2.07,0,0,0-.65.6,3.21,3.21,0,0,0-.42.85,6.27,6.27,0,0,0-.25,1,7,7,0,0,0-.11,1C337.59,50.45,337.58,50.74,337.58,51Z"/><path class="cls-1" d="M349.34,53.46h-3.93V52.12h3.93Z"/><path class="cls-1" d="M354.67,47.09,352.59,49l-.9-1.07,3.16-2.61h1.36V56.66h-1.54Z"/><path class="cls-1" d="M365.07,52.28H365a2.85,2.85,0,0,1-1.25.25,3.79,3.79,0,0,1-1.23-.21,3.18,3.18,0,0,1-1.13-.64,3.35,3.35,0,0,1-.82-1.12,3.67,3.67,0,0,1-.32-1.61,4,4,0,0,1,.31-1.64,3.46,3.46,0,0,1,2.07-1.92,4.57,4.57,0,0,1,3,0,3.62,3.62,0,0,1,1.23.73,3.71,3.71,0,0,1,.84,1.15,3.52,3.52,0,0,1,.31,1.51,4.78,4.78,0,0,1-.08,1,4.31,4.31,0,0,1-.23.82,6.78,6.78,0,0,1-.36.78c-.14.25-.29.52-.46.78L364,56.66h-1.81Zm1.43-3.44a2.63,2.63,0,0,0-.17-1,2.06,2.06,0,0,0-.48-.74,2.27,2.27,0,0,0-.75-.49,2.42,2.42,0,0,0-1-.18,2.49,2.49,0,0,0-1,.18,2.33,2.33,0,0,0-.74.49,2.06,2.06,0,0,0-.48.74,2.71,2.71,0,0,0,0,1.89,2,2,0,0,0,.48.74,2.33,2.33,0,0,0,.74.49,2.49,2.49,0,0,0,1,.18,2.42,2.42,0,0,0,1-.18,2.27,2.27,0,0,0,.75-.49,2,2,0,0,0,.48-.74A2.62,2.62,0,0,0,366.5,48.84Z"/><path class="cls-1" d="M372.56,49.72h.06a2.84,2.84,0,0,1,1.25-.26,3.79,3.79,0,0,1,1.23.21,3.12,3.12,0,0,1,1.13.65,3.16,3.16,0,0,1,.82,1.12,3.63,3.63,0,0,1,.33,1.6,4.06,4.06,0,0,1-.32,1.66,3.3,3.3,0,0,1-.84,1.19,3.44,3.44,0,0,1-1.23.72,4.62,4.62,0,0,1-1.5.24A4.39,4.39,0,0,1,372,56.6a3.64,3.64,0,0,1-1.23-.74,3.6,3.6,0,0,1-.84-1.15,3.52,3.52,0,0,1-.31-1.51,5.64,5.64,0,0,1,.08-1,4.53,4.53,0,0,1,.23-.82,6,6,0,0,1,.36-.77c.14-.25.29-.51.47-.79l2.86-4.53h1.81Zm-1.43,3.44a2.62,2.62,0,0,0,.17.94,2.15,2.15,0,0,0,1.23,1.23,2.45,2.45,0,0,0,1,.18,2.49,2.49,0,0,0,1-.18,2.22,2.22,0,0,0,.74-.49,2,2,0,0,0,.48-.74,2.71,2.71,0,0,0,0-1.89,2.06,2.06,0,0,0-.48-.74,2.22,2.22,0,0,0-.74-.49,2.49,2.49,0,0,0-1-.18,2.45,2.45,0,0,0-1,.18,2.27,2.27,0,0,0-.75.49,2.36,2.36,0,0,0-.48.74A2.63,2.63,0,0,0,371.13,53.16Z"/><path class="cls-1" d="M381.9,49.72H382a2.81,2.81,0,0,1,1.25-.26,3.88,3.88,0,0,1,1.23.21,3.25,3.25,0,0,1,1.95,1.77,3.77,3.77,0,0,1,.32,1.6,4.06,4.06,0,0,1-.31,1.66,3.4,3.4,0,0,1-2.07,1.91,4.68,4.68,0,0,1-1.51.24,4.37,4.37,0,0,1-1.5-.25,3.79,3.79,0,0,1-1.24-.74,3.43,3.43,0,0,1-.83-1.15,3.52,3.52,0,0,1-.32-1.51,5.64,5.64,0,0,1,.08-1,4.55,4.55,0,0,1,.24-.82,6,6,0,0,1,.36-.77c.13-.25.29-.51.46-.79l2.86-4.53h1.81Zm-1.42,3.44a2.62,2.62,0,0,0,.17.94,2,2,0,0,0,.48.74,2.22,2.22,0,0,0,.74.49,2.65,2.65,0,0,0,1.92,0,2.27,2.27,0,0,0,.75-.49,2.08,2.08,0,0,0,.47-.74,2.71,2.71,0,0,0,0-1.89,2.18,2.18,0,0,0-.47-.74,2.27,2.27,0,0,0-.75-.49,2.65,2.65,0,0,0-1.92,0,2.22,2.22,0,0,0-.74.49,2.06,2.06,0,0,0-.48.74A2.63,2.63,0,0,0,380.48,53.16Z"/><path class="cls-1" d="M30.75,0A30.75,30.75,0,1,0,61.5,30.75,30.75,30.75,0,0,0,30.75,0Zm0,58.83a9.93,9.93,0,1,1,9.93-9.93A9.94,9.94,0,0,1,30.75,58.83Z"/></g></g></svg>